<svg width="170" height="170" viewBox="0 0 170 170" fill="none" xmlns="http://www.w3.org/2000/svg">
<path d="M22.0117 56H18.7134L6.18652 36.8252V56H2.88818V31.1172H6.18652L18.7476 50.3774V31.1172H22.0117V56ZM46.98 44.3618C46.98 46.8 46.5698 48.9305 45.7495 50.7534C44.9292 52.5649 43.7671 53.9492 42.2632 54.9062C40.7593 55.8633 39.0047 56.3418 36.9995 56.3418C35.0399 56.3418 33.3024 55.8633 31.7871 54.9062C30.2718 53.9378 29.0926 52.5649 28.2495 50.7876C27.4178 48.9989 26.9906 46.931 26.9678 44.584V42.7896C26.9678 40.397 27.3836 38.2835 28.2153 36.4492C29.047 34.6149 30.2205 33.2135 31.7358 32.2451C33.2625 31.2653 35.0057 30.7754 36.9653 30.7754C38.9591 30.7754 40.7137 31.2596 42.229 32.228C43.7557 33.1851 44.9292 34.5807 45.7495 36.415C46.5698 38.238 46.98 40.3628 46.98 42.7896V44.3618ZM43.7158 42.7554C43.7158 39.8045 43.1234 37.543 41.9385 35.9707C40.7536 34.387 39.0959 33.5952 36.9653 33.5952C34.8918 33.5952 33.2568 34.387 32.0605 35.9707C30.8757 37.543 30.2661 39.7305 30.2319 42.5332V44.3618C30.2319 47.2215 30.8301 49.4717 32.0264 51.1123C33.234 52.7415 34.8918 53.5562 36.9995 53.5562C39.1187 53.5562 40.7593 52.7871 41.9214 51.249C43.0835 49.6995 43.6816 47.4836 43.7158 44.6011V42.7554ZM68.6157 33.8174H60.6177V56H57.3535V33.8174H49.3726V31.1172H68.6157V33.8174ZM86.3721 44.4985H75.5884V53.3169H88.1152V56H72.3071V31.1172H87.9443V33.8174H75.5884V41.8154H86.3721V44.4985ZM7.12646 72.1172L15.2612 92.4199L23.396 72.1172H27.6514V97H24.3701V87.3101L24.6777 76.8511L16.5088 97H13.9966L5.84473 76.9023L6.16943 87.3101V97H2.88818V72.1172H7.12646ZM40.5542 84.6099L47.0483 72.1172H50.7739L42.1948 87.7202V97H38.9136V87.7202L30.3345 72.1172H34.0942L40.5542 84.6099ZM7.12646 113.117L15.2612 133.42L23.396 113.117H27.6514V138H24.3701V128.31L24.6777 117.851L16.5088 138H13.9966L5.84473 117.902L6.16943 128.31V138H2.88818V113.117H7.12646ZM36.9653 138H33.6841V113.117H36.9653V138ZM62.1045 138H58.8062L46.2793 118.825V138H42.981V113.117H46.2793L58.8403 132.377V113.117H62.1045V138ZM67.9321 138V113.117H74.9561C77.1208 113.117 79.0348 113.596 80.6982 114.553C82.3617 115.51 83.6434 116.871 84.5435 118.637C85.4549 120.403 85.9163 122.431 85.9277 124.721V126.311C85.9277 128.658 85.472 130.714 84.5605 132.48C83.6605 134.246 82.3674 135.602 80.6812 136.547C79.0063 137.493 77.0524 137.977 74.8193 138H67.9321ZM71.2134 115.817V135.317H74.6655C77.1948 135.317 79.1602 134.531 80.5615 132.958C81.9743 131.386 82.6807 129.147 82.6807 126.242V124.79C82.6807 121.964 82.0142 119.771 80.6812 118.21C79.3595 116.638 77.4797 115.84 75.0415 115.817H71.2134Z" fill="white"/>
<rect x="128" y="30" width="42" height="15" fill="white"/>
<rect x="128" y="54" width="42" height="15" fill="white"/>
<rect x="128" y="78" width="42" height="15" fill="white"/>
<rect x="128" y="102" width="42" height="15" fill="white"/>
<rect x="128" y="126" width="42" height="15" fill="white"/>
</svg>
